<?xml version="1.0" standalone="no"?>
<!DOCTYPE svg PUBLIC "-//W3C//DTD SVG 20010904//EN"
 "http://www.w3.org/TR/2001/REC-SVG-20010904/DTD/svg10.dtd">
<svg version="1.0" xmlns="http://www.w3.org/2000/svg"
 width="2542.000000pt" height="2513.000000pt" viewBox="0 0 2542.000000 2513.000000"
 preserveAspectRatio="xMidYMid meet">

<g transform="translate(0.000000,2513.000000) scale(0.100000,-0.100000)"
fill="#000000" stroke="none">
<path d="M7050 5202 c0 -18 39 -43 61 -40 32 4 34 23 4 36 -30 14 -65 16 -65
4z"/>
<path d="M6942 5065 c-16 -36 -15 -80 3 -95 8 -7 15 -20 15 -29 0 -10 14 -23
35 -31 19 -8 35 -19 35 -24 1 -18 48 -66 65 -66 19 0 19 -17 0 -36 -8 -9 -15
-24 -15 -34 0 -29 -34 -33 -84 -8 -37 18 -46 27 -46 48 0 33 -27 90 -46 97 -8
3 -14 12 -14 21 0 13 -2 13 -17 0 -10 -8 -26 -18 -36 -21 -9 -4 -20 -20 -23
-36 -4 -18 -14 -31 -27 -35 -18 -4 -19 -10 -14 -66 4 -33 9 -73 13 -88 4 -19
3 -23 -4 -13 -15 21 -30 5 -37 -39 -4 -22 -12 -43 -17 -46 -14 -9 -40 26 -33
44 3 10 -1 12 -18 7 -12 -4 -30 -9 -41 -12 -11 -3 -34 -38 -57 -89 -22 -46
-48 -89 -58 -96 -10 -7 -26 -30 -34 -51 -10 -22 -26 -41 -42 -47 -14 -5 -33
-26 -42 -45 -12 -25 -26 -38 -45 -42 -32 -6 -47 -21 -57 -59 -4 -16 -20 -35
-37 -44 -39 -21 -87 -114 -81 -156 6 -36 1 -46 -30 -63 -13 -6 -23 -18 -23
-25 0 -25 -61 -147 -76 -153 -8 -3 -21 -21 -29 -39 -13 -32 -17 -34 -64 -34
-83 0 -113 -21 -152 -106 -19 -42 -40 -76 -51 -80 -27 -8 -36 -33 -44 -120 -7
-90 -27 -142 -59 -154 -25 -9 -30 -30 -41 -151 -7 -81 -24 -113 -89 -167 -9
-8 -15 -29 -15 -55 0 -32 -7 -49 -29 -72 -15 -17 -33 -47 -40 -67 -15 -47 -15
-297 0 -335 26 -64 34 -79 51 -93 12 -11 20 -41 28 -106 12 -108 25 -151 50
-159 26 -8 38 -48 45 -158 7 -113 10 -123 34 -130 16 -4 32 -29 84 -130 11
-21 26 -41 33 -44 8 -3 14 -18 14 -33 0 -34 35 -80 60 -80 11 0 26 -12 34 -28
25 -48 46 -59 124 -64 67 -5 77 -9 110 -40 20 -19 56 -43 79 -53 24 -10 45
-26 49 -37 10 -32 46 -58 82 -58 40 0 72 -15 72 -35 0 -22 38 -41 105 -53 75
-14 726 -15 954 -2 168 10 311 34 311 53 0 6 3 7 7 4 3 -4 13 -1 21 6 10 8 72
14 192 17 176 5 177 5 221 35 24 16 47 28 51 27 4 -1 27 5 51 13 24 8 99 19
168 24 68 6 139 15 157 20 19 6 105 7 210 4 196 -6 311 9 359 47 19 15 41 20
86 20 74 0 187 32 226 65 31 27 64 34 236 55 107 13 147 22 211 51 32 14 76
19 211 23 140 4 180 9 227 26 31 12 56 25 56 30 0 22 75 41 187 46 149 7 252
26 325 59 35 16 89 29 143 36 93 10 118 20 179 68 30 24 49 31 82 31 55 0 121
26 129 51 10 31 41 40 143 45 98 5 192 20 225 36 10 5 22 20 27 34 8 21 16 24
58 24 53 0 85 17 107 59 13 27 18 28 103 34 92 7 208 32 230 49 22 18 -6 38
-54 38 -25 0 -53 5 -64 12 -17 11 -15 14 28 26 86 24 102 26 102 8 0 -8 9 -20
20 -26 11 -6 19 -14 16 -18 -6 -9 276 -7 332 3 45 8 67 25 32 25 -12 0 -31 5
-42 11 -11 6 -18 7 -14 1 7 -12 -71 -23 -105 -15 -34 8 -49 22 -49 46 0 29
-29 46 -80 47 -25 0 -56 7 -68 16 -28 19 -29 44 -2 37 15 -4 19 -2 14 10 -3 8
-2 17 3 20 18 11 131 -14 180 -40 28 -15 55 -24 60 -20 4 5 1 12 -7 17 -12 7
-10 12 9 29 28 24 22 47 -15 62 -31 11 -44 0 -44 -38 0 -28 2 -28 -71 2 -33
14 -74 27 -90 28 -16 1 -29 4 -29 7 0 17 -75 31 -123 24 -29 -4 -54 -7 -57 -7
-3 1 -14 4 -25 8 -19 6 -19 6 -2 -8 16 -13 16 -15 1 -21 -37 -14 -112 3 -99
23 3 5 -7 12 -23 16 -15 3 -58 20 -96 38 -49 22 -71 28 -74 19 -2 -8 -13 -10
-29 -6 -20 5 -24 4 -18 -6 6 -9 4 -11 -6 -5 -31 18 -47 38 -42 51 3 8 0 14 -6
14 -6 0 -11 5 -11 11 0 7 11 8 30 4 29 -6 43 8 18 18 -10 4 -10 6 0 6 18 1 16
91 -2 91 -8 0 -16 5 -18 12 -5 15 -120 23 -145 10 -14 -8 -30 -6 -64 9 l-44
19 25 -20 c14 -11 28 -20 32 -20 4 0 8 -10 10 -22 2 -14 12 -24 27 -28 14 -3
26 -10 28 -15 7 -22 -16 -35 -73 -41 -57 -5 -61 -4 -117 35 -32 22 -72 43 -90
46 -46 10 -69 33 -56 56 8 15 6 21 -7 26 -16 6 -16 7 2 13 13 5 2 10 -36 15
-41 6 -50 10 -35 15 18 7 17 9 -9 19 -17 7 -36 21 -43 31 -8 11 -22 20 -31 20
-21 -1 -54 -25 -45 -33 11 -11 -49 -28 -78 -22 -14 3 -43 21 -64 40 -36 32
-87 51 -106 39 -5 -2 -19 1 -31 8 -13 7 -28 11 -34 10 -6 -1 -18 5 -25 15 -9
11 -10 14 -1 9 6 -4 12 -3 12 1 0 5 -6 15 -12 22 -11 10 -9 14 5 22 9 6 15 15
11 20 -3 6 2 9 12 8 32 -5 107 13 123 28 18 18 4 46 -25 52 -56 11 -122 43
-132 66 -15 32 -67 58 -101 50 -67 -15 -83 -27 -76 -54 9 -34 33 -61 57 -61
10 0 18 -7 18 -17 0 -9 10 -27 22 -40 21 -23 21 -23 2 -41 -15 -14 -26 -16
-50 -10 -39 10 -84 56 -65 67 17 11 -8 21 -52 21 -75 0 -143 38 -107 60 9 6 9
9 0 15 -9 6 -9 9 1 16 9 5 -13 20 -68 45 -72 32 -83 40 -89 68 -4 17 -9 25
-11 19 -3 -10 -10 -10 -24 -2 -11 5 -25 7 -31 2 -7 -4 -22 -7 -33 -8 -55 -3
-66 -6 -61 -14 8 -12 -55 -19 -89 -9 -15 4 -36 15 -46 24 -19 17 -19 18 12 31
19 8 47 11 68 8 35 -6 35 -6 16 11 -14 11 -16 18 -7 21 6 3 9 9 6 15 -4 6 -1
13 5 17 18 12 -19 47 -80 76 l-54 25 -3 -30 c-2 -17 -7 -30 -13 -30 -5 0 -9
-9 -9 -20 0 -11 -7 -23 -15 -26 -8 -4 -13 -10 -10 -14 6 -10 -49 -18 -82 -12
-14 3 -38 23 -56 48 -28 38 -96 83 -134 88 -18 3 -86 76 -71 76 16 0 -17 22
-57 38 -27 11 -28 11 -12 -2 18 -14 18 -14 -2 -21 -12 -3 -21 -10 -21 -15 0
-15 -44 -19 -69 -5 -19 11 -21 14 -8 15 9 0 17 4 17 9 0 5 13 14 29 21 37 15
31 33 -17 54 -45 19 -123 20 -116 1 7 -18 -49 -29 -75 -15 -36 19 -25 36 26
39 26 1 50 4 55 7 8 5 -1 64 -12 77 -11 13 -80 26 -80 16 0 -5 -15 -9 -32 -10
-41 -1 -71 -12 -66 -24 2 -6 -16 -13 -40 -16 -36 -5 -45 -2 -53 13 -14 26 5
48 40 48 18 0 22 3 13 9 -11 6 -10 11 3 25 38 37 -5 58 -96 46 -65 -9 -96 1
-104 33 -4 12 -15 29 -27 36 -16 10 -26 10 -55 -4 -28 -13 -41 -15 -59 -6 -31
14 -33 57 -4 66 28 9 25 39 -4 53 -19 9 -25 8 -30 -4 -3 -8 -14 -14 -25 -14
-11 0 -22 -4 -26 -9 -7 -13 -104 -8 -131 7 -13 7 -21 21 -21 36 0 23 2 24 63
23 60 -2 80 5 52 16 -7 3 -1 6 14 6 14 1 33 4 42 7 17 7 22 24 7 24 -6 0 -22
11 -37 25 -31 28 -46 31 -63 11 -17 -20 -56 -28 -85 -16 -23 8 -26 7 -26 -10
0 -11 -3 -19 -7 -18 -5 1 -24 -2 -44 -6 -27 -6 -45 -3 -77 14 -23 12 -42 28
-42 36 0 7 -21 25 -47 38 -27 13 -56 33 -66 44 -10 11 -33 26 -50 32 -81 30
-107 44 -107 57 0 8 5 11 10 8 6 -3 10 -1 10 4 0 6 -4 11 -10 11 -17 0 -11 18
8 22 10 3 1 9 -26 18 -38 12 -47 12 -72 -3 -15 -9 -37 -17 -47 -17 -31 0 -63
29 -61 55 2 21 9 25 45 31 55 8 57 33 5 55 -30 12 -40 13 -49 4 -9 -9 -9 -15
0 -24 8 -8 7 -11 -6 -11 -9 0 -17 -5 -17 -11 0 -6 -7 -8 -16 -5 -9 4 -37 -5
-62 -19 -26 -14 -43 -23 -40 -19 4 3 1 13 -7 21 -11 11 -12 19 -5 34 6 11 8
24 5 29 -10 17 6 59 21 53 8 -3 14 1 14 11 0 9 -5 16 -10 16 -6 0 -20 19 -30
43 -17 37 -20 39 -20 15 0 -29 -15 -46 -23 -26 -2 7 -7 -2 -11 -19 -4 -18 -11
-33 -15 -33 -16 0 -59 40 -64 60 -4 17 -3 19 8 10 9 -8 14 -5 18 10 3 11 1 18
-4 14 -13 -7 -102 34 -95 44 11 18 -30 40 -84 47 -68 9 -109 28 -134 62 -18
24 -18 26 -2 20 10 -4 15 -3 11 4 -4 5 -16 7 -27 3 -12 -3 -18 -2 -15 3 4 6
-14 11 -40 12 -37 1 -53 8 -83 35 -21 19 -53 41 -71 50 -19 9 -45 32 -59 51
-19 26 -63 55 -85 55 -1 0 -7 -11 -13 -25z m-112 -330 c0 -9 -6 -12 -15 -9 -8
4 -15 10 -15 15 0 5 7 9 15 9 8 0 15 -7 15 -15z m472 -29 c3 2 3 -10 0 -26 -3
-18 0 -30 7 -30 6 0 11 -13 11 -30 l0 -30 -45 22 c-29 14 -45 29 -45 40 0 10
5 18 11 18 7 0 8 11 4 30 -10 45 4 58 31 27 12 -14 24 -24 26 -21z m-489 -36
c-7 -28 -13 -25 -13 6 0 14 4 23 9 20 5 -3 7 -15 4 -26z m2137 -800 c13 -8 13
-10 -2 -10 -9 0 -20 5 -23 10 -8 13 5 13 25 0z m1425 -654 l30 -24 -27 -11
c-17 -6 -38 -7 -62 0 -37 10 -58 29 -33 29 8 0 20 7 27 15 17 21 30 19 65 -9z
m1205 -805 c0 -5 -9 -7 -20 -4 -11 3 -20 7 -20 9 0 2 9 4 20 4 11 0 20 -4 20
-9z"/>
<path d="M7038 4833 c7 -3 16 -2 19 1 4 3 -2 6 -13 5 -11 0 -14 -3 -6 -6z"/>
<path d="M6703 4677 c-15 -32 -1 -56 21 -38 9 7 14 17 11 21 -3 5 0 12 6 16 8
4 7 9 -2 15 -21 13 -25 11 -36 -14z"/>
<path d="M8060 4470 c0 -6 7 -10 15 -10 8 0 15 2 15 4 0 2 -7 6 -15 10 -8 3
-15 1 -15 -4z"/>
<path d="M9191 3957 c-25 -25 -12 -43 33 -46 58 -3 66 13 18 38 -29 15 -42 17
-51 8z"/>
<path d="M9400 3845 c-7 -8 -9 -18 -7 -22 7 -11 87 -4 87 8 0 5 -1 9 -3 9 -1
0 -16 4 -34 9 -24 7 -35 6 -43 -4z"/>
<path d="M9570 3751 c0 -12 5 -21 10 -21 6 0 10 6 10 14 0 8 -4 18 -10 21 -5
3 -10 -3 -10 -14z"/>
<path d="M9790 3708 c0 -6 -11 -8 -25 -4 -19 5 -25 2 -25 -9 0 -9 5 -13 10
-10 6 3 10 1 10 -4 0 -32 126 -91 195 -91 13 0 25 -4 27 -10 2 -6 9 -6 18 0
11 7 3 14 -35 32 -43 20 -50 27 -47 48 3 24 -2 27 -50 40 -73 19 -78 20 -78 8z"/>
<path d="M10050 3505 c0 -9 9 -15 25 -15 16 0 25 6 25 15 0 9 -9 15 -25 15
-16 0 -25 -6 -25 -15z"/>
<path d="M10920 3280 c0 -12 48 -32 62 -28 5 2 -7 11 -26 21 -20 9 -36 12 -36
7z"/>
<path d="M10655 3100 c27 -12 43 -12 25 0 -8 5 -22 9 -30 9 -10 0 -8 -3 5 -9z"/>
<path d="M11083 3023 c-17 -3 -23 -11 -23 -31 1 -36 19 -56 52 -60 44 -4 65
12 60 46 -3 27 -37 55 -60 51 -4 -1 -17 -4 -29 -6z"/>
<path d="M11480 2880 c0 -5 -13 -10 -30 -10 -16 0 -30 -4 -30 -9 0 -10 87 -8
97 3 4 4 1 11 -7 16 -20 13 -30 12 -30 0z"/>
<path d="M11530 2852 c0 -26 3 -29 25 -24 18 3 25 0 25 -12 0 -9 8 -16 20 -16
11 0 20 -6 20 -12 0 -15 45 -38 74 -38 29 0 66 11 66 19 0 9 -161 81 -182 81
-9 0 -24 7 -32 16 -15 14 -16 13 -16 -14z"/>
<path d="M11370 2850 c0 -5 7 -10 15 -10 8 0 15 5 15 10 0 6 -7 10 -15 10 -8
0 -15 -4 -15 -10z"/>
<path d="M11340 2839 c0 -5 5 -7 10 -4 6 3 10 8 10 11 0 2 -4 4 -10 4 -5 0
-10 -5 -10 -11z"/>
<path d="M11470 2804 c0 -8 9 -14 20 -14 12 0 39 -9 61 -21 22 -11 45 -19 51
-17 6 2 -21 18 -61 35 -54 24 -71 28 -71 17z"/>
<path d="M12010 2548 c0 -15 5 -30 11 -33 16 -11 17 -2 3 30 l-13 30 -1 -27z"/>
<path d="M13060 2120 c8 -5 38 -10 65 -10 36 0 46 3 35 10 -8 5 -37 10 -65 10
-36 0 -46 -3 -35 -10z"/>
<path d="M13240 2070 c-12 -7 -10 -11 10 -18 14 -5 32 -7 39 -4 11 4 11 7 3
10 -7 2 -10 8 -6 13 7 12 -27 11 -46 -1z"/>
<path d="M13408 2018 c5 -5 16 -8 23 -6 8 3 3 7 -10 11 -17 4 -21 3 -13 -5z"/>
<path d="M13785 1990 c3 -5 14 -10 23 -10 15 0 15 2 2 10 -20 13 -33 13 -25 0z"/>
</g>
</svg>
