<?xml version="1.0" standalone="no"?>
<!DOCTYPE svg PUBLIC "-//W3C//DTD SVG 20010904//EN"
 "http://www.w3.org/TR/2001/REC-SVG-20010904/DTD/svg10.dtd">
<svg version="1.0" xmlns="http://www.w3.org/2000/svg"
 width="500.000000pt" height="183.000000pt" viewBox="0 0 500.000000 183.000000"
 preserveAspectRatio="xMidYMid meet">

<g transform="translate(0.000000,183.000000) scale(0.100000,-0.100000)"
fill="#000000" stroke="none">
<path d="M3690 435 l0 -145 35 0 c32 0 35 2 35 30 0 29 1 30 51 30 45 0 55 4
85 34 29 29 34 41 34 81 0 40 -5 52 -34 81 -33 33 -36 34 -120 34 l-86 0 0
-145z m162 68 c40 -36 5 -93 -57 -93 l-35 0 0 55 0 55 37 0 c20 0 45 -7 55
-17z"/>
<path d="M3960 435 l0 -145 105 0 105 0 0 30 0 30 -70 0 -70 0 0 115 0 115
-35 0 -35 0 0 -145z"/>
<path d="M4236 555 c-38 -35 -46 -65 -46 -171 l0 -94 35 0 c32 0 35 2 35 30 0
30 1 30 55 30 54 0 55 0 55 -30 0 -27 3 -30 30 -30 l30 0 0 111 0 111 -34 34
c-30 30 -41 34 -84 34 -38 0 -55 -5 -76 -25z m118 -57 c9 -12 16 -37 16 -55
l0 -33 -55 0 -55 0 0 39 c0 23 7 46 16 55 22 23 60 20 78 -6z"/>
<path d="M4460 523 c0 -66 24 -116 65 -135 21 -9 25 -18 25 -55 0 -41 1 -43
30 -43 29 0 30 2 30 43 0 37 4 45 31 61 38 23 59 70 59 136 0 48 -1 50 -29 50
-27 0 -28 -2 -34 -57 -4 -38 -12 -62 -23 -70 -48 -35 -94 3 -94 77 0 49 -1 50
-30 50 -30 0 -30 0 -30 -57z"/>
<path d="M322 486 c-66 -88 -48 -156 41 -156 48 0 208 32 252 50 l30 13 -30
11 c-16 6 -79 35 -140 66 -60 30 -112 56 -115 57 -3 1 -20 -17 -38 -41z"/>
</g>
</svg>
