<?xml version="1.0" encoding="UTF-8"?>
<!DOCTYPE svg PUBLIC "-//W3C//DTD SVG 1.1//EN" "http://www.w3.org/Graphics/SVG/1.1/DTD/svg11.dtd">
<svg xmlns="http://www.w3.org/2000/svg" version="1.1" width="500px" height="183px" style="shape-rendering:geometricPrecision; text-rendering:geometricPrecision; image-rendering:optimizeQuality; fill-rule:evenodd; clip-rule:evenodd" xmlns:xlink="http://www.w3.org/1999/xlink">
<g><path style="opacity:1" fill="#1dec9a" d="M 95.5,52.5 C 95.38,53.5862 94.7133,54.2528 93.5,54.5C 89.9691,52.9113 86.3024,51.7446 82.5,51C 68.9101,44.7023 55.2434,38.7023 41.5,33C 45.4765,32.4686 49.3099,32.9686 53,34.5C 53.4643,33.9056 53.631,33.2389 53.5,32.5C 57.0822,33.6923 60.7489,34.6923 64.5,35.5C 75.5784,31.9307 86.9117,30.4307 98.5,31C 101.598,32.2679 103.265,34.6012 103.5,38C 101.477,43.2147 98.8104,48.048 95.5,52.5 Z"/></g>
<g><path style="opacity:1" fill="#85f5c7" d="M 28.5,44.5 C 36.4073,49.7049 44.9073,54.0382 54,57.5C 55.8603,55.7991 58.027,54.7991 60.5,54.5C 58.1938,57.4729 55.5272,60.1395 52.5,62.5C 48.2977,63.9541 44.2977,63.4541 40.5,61C 39.1498,59.2817 37.9832,57.4484 37,55.5C 36.7508,56.624 36.2508,57.624 35.5,58.5C 34.2813,57.3539 32.9479,56.3539 31.5,55.5C 32.3128,54.1861 33.3128,53.0195 34.5,52C 34.2716,51.6012 33.9382,51.4346 33.5,51.5C 31.4453,49.4451 29.7787,47.1117 28.5,44.5 Z"/></g>
<g><path style="opacity:1" fill="#49f4ae" d="M 53.5,32.5 C 53.631,33.2389 53.4643,33.9056 53,34.5C 49.3099,32.9686 45.4765,32.4686 41.5,33C 55.2434,38.7023 68.9101,44.7023 82.5,51C 86.3024,51.7446 89.9691,52.9113 93.5,54.5C 94.7133,54.2528 95.38,53.5862 95.5,52.5C 102.574,56.9101 107.908,62.9101 111.5,70.5C 112.167,72.8194 112.334,75.1527 112,77.5C 105.01,74.74 98.5096,71.24 92.5,67C 83.4017,64.7129 75.735,60.0462 69.5,53C 64.4945,52.918 59.4945,52.918 54.5,53C 44.9011,49.2894 36.0677,44.456 28,38.5C 27.51,37.2068 27.3433,35.8734 27.5,34.5C 27.5743,32.5891 28.5743,31.4224 30.5,31C 38.2423,30.352 45.9089,30.852 53.5,32.5 Z"/></g>
<g><path style="opacity:0.999" fill="#aef5da" d="M 33.5,51.5 C 33.9382,51.4346 34.2716,51.6012 34.5,52C 33.3128,53.0195 32.3128,54.1861 31.5,55.5C 32.9479,56.3539 34.2813,57.3539 35.5,58.5C 36.2508,57.624 36.7508,56.624 37,55.5C 37.9832,57.4484 39.1498,59.2817 40.5,61C 44.2977,63.4541 48.2977,63.9541 52.5,62.5C 50.1395,65.5272 47.4729,68.1938 44.5,70.5C 41.5322,70.6261 39.5322,72.1261 38.5,75C 36.2769,76.7331 33.9435,78.2331 31.5,79.5C 28.2822,78.974 26.2822,77.6407 25.5,75.5C 19.6539,76.9889 17.3206,74.6556 18.5,68.5C 22.3357,61.845 27.3357,56.1784 33.5,51.5 Z"/></g>
<g><path style="opacity:0.907" fill="#fefffe" d="M 156.5,74.5 C 165.457,76.0471 168.623,81.3804 166,90.5C 165.727,92.3289 164.893,93.8289 163.5,95C 157.645,97.8519 151.645,98.1853 145.5,96C 141.247,92.9795 139.581,88.8128 140.5,83.5C 143.187,83.6641 145.854,83.4974 148.5,83C 143.243,81.8501 140.576,78.5168 140.5,73C 140.343,67.6269 142.677,63.9602 147.5,62C 152.589,61.1743 157.589,61.5076 162.5,63C 165.154,66.3273 166.154,70.1606 165.5,74.5C 162.5,74.5 159.5,74.5 156.5,74.5 Z M 156.5,74.5 C 154.571,74.7692 152.905,74.2692 151.5,73C 153.674,72.1231 155.341,72.6231 156.5,74.5 Z M 150.5,83.5 C 152.308,83.4914 153.975,83.9914 155.5,85C 153.202,86.8582 151.535,86.3582 150.5,83.5 Z"/></g>
<g><path style="opacity:0.921" fill="#fefffe" d="M 175.5,61.5 C 185.466,59.3918 191.966,63.0585 195,72.5C 195.789,78.2367 195.456,83.9034 194,89.5C 189.395,97.2142 182.895,99.3809 174.5,96C 171.131,93.6351 168.964,90.4685 168,86.5C 166.902,79.6154 167.569,72.9487 170,66.5C 171.73,64.5981 173.563,62.9314 175.5,61.5 Z M 180.5,73.5 C 183.55,74.2418 185.217,76.2418 185.5,79.5C 185.137,84.0545 182.971,85.3878 179,83.5C 176.739,79.6537 177.239,76.3204 180.5,73.5 Z"/></g>
<g><path style="opacity:0.919" fill="#fefffe" d="M 340.5,61.5 C 353.444,59.7778 359.778,65.4445 359.5,78.5C 356.167,78.5 352.833,78.5 349.5,78.5C 349.371,74.515 347.537,73.1817 344,74.5C 341.705,78.692 342.372,82.3586 346,85.5C 349.328,81.1765 353.828,79.5099 359.5,80.5C 358.808,95.8391 351.474,100.506 337.5,94.5C 335.226,92.2873 333.726,89.6207 333,86.5C 331.902,79.6154 332.569,72.9487 335,66.5C 336.73,64.5981 338.563,62.9314 340.5,61.5 Z"/></g>
<g><path style="opacity:0.907" fill="#fefffe" d="M 405.5,74.5 C 414.457,76.0471 417.623,81.3804 415,90.5C 414.727,92.3289 413.893,93.8289 412.5,95C 406.645,97.8519 400.645,98.1853 394.5,96C 390.247,92.9795 388.581,88.8128 389.5,83.5C 392.187,83.6641 394.854,83.4974 397.5,83C 392.243,81.8501 389.576,78.5168 389.5,73C 389.343,67.6269 391.677,63.9602 396.5,62C 401.589,61.1743 406.589,61.5076 411.5,63C 414.154,66.3273 415.154,70.1606 414.5,74.5C 411.5,74.5 408.5,74.5 405.5,74.5 Z M 405.5,74.5 C 403.571,74.7692 401.905,74.2692 400.5,73C 402.674,72.1231 404.341,72.6231 405.5,74.5 Z M 399.5,83.5 C 401.308,83.4914 402.975,83.9914 404.5,85C 402.202,86.8582 400.535,86.3582 399.5,83.5 Z"/></g>
<g><path style="opacity:0.921" fill="#fefffe" d="M 465.5,61.5 C 475.466,59.3918 481.966,63.0585 485,72.5C 485.789,78.2367 485.456,83.9034 484,89.5C 479.395,97.2142 472.895,99.3809 464.5,96C 461.131,93.6351 458.964,90.4685 458,86.5C 456.902,79.6154 457.569,72.9487 460,66.5C 461.73,64.5981 463.563,62.9314 465.5,61.5 Z M 470.5,73.5 C 473.55,74.2418 475.217,76.2418 475.5,79.5C 475.137,84.0545 472.971,85.3878 469,83.5C 466.739,79.6537 467.239,76.3204 470.5,73.5 Z"/></g>
<g><path style="opacity:0.9" fill="#fefffe" d="M 196.5,62.5 C 200.167,62.5 203.833,62.5 207.5,62.5C 207.5,69.8333 207.5,77.1667 207.5,84.5C 211.5,84.5 215.5,84.5 219.5,84.5C 219.5,88.5 219.5,92.5 219.5,96.5C 211.833,96.5 204.167,96.5 196.5,96.5C 196.5,85.1667 196.5,73.8333 196.5,62.5 Z"/></g>
<g><path style="opacity:0.923" fill="#fefffe" d="M 220.5,62.5 C 227.175,62.3337 233.842,62.5004 240.5,63C 243,64.1667 244.833,66 246,68.5C 247.141,75.0841 246.474,81.4174 244,87.5C 240.285,90.0761 236.118,91.0761 231.5,90.5C 231.5,92.5 231.5,94.5 231.5,96.5C 227.833,96.5 224.167,96.5 220.5,96.5C 220.5,85.1667 220.5,73.8333 220.5,62.5 Z M 231.5,73.5 C 238.095,75.2309 238.095,76.8975 231.5,78.5C 231.5,76.8333 231.5,75.1667 231.5,73.5 Z"/></g>
<g><path style="opacity:0.9" fill="#fefffe" d="M 247.5,62.5 C 251.167,62.5 254.833,62.5 258.5,62.5C 258.5,69.8333 258.5,77.1667 258.5,84.5C 262.5,84.5 266.5,84.5 270.5,84.5C 270.5,88.5 270.5,92.5 270.5,96.5C 262.833,96.5 255.167,96.5 247.5,96.5C 247.5,85.1667 247.5,73.8333 247.5,62.5 Z"/></g>
<g><path style="opacity:0.919" fill="#fefffe" d="M 279.5,62.5 C 284.43,62.1975 289.263,62.5308 294,63.5C 296.979,74.4124 299.479,85.4124 301.5,96.5C 297.833,96.5 294.167,96.5 290.5,96.5C 290.5,95.1667 290.5,93.8333 290.5,92.5C 287.833,92.5 285.167,92.5 282.5,92.5C 282.5,93.8333 282.5,95.1667 282.5,96.5C 278.833,96.5 275.167,96.5 271.5,96.5C 273.541,85.0019 276.208,73.6685 279.5,62.5 Z M 285.5,77.5 C 286.649,77.7911 287.316,78.6244 287.5,80C 287.167,80.8333 286.833,81.6667 286.5,82.5C 285.548,80.9547 285.215,79.288 285.5,77.5 Z"/></g>
<g><path style="opacity:0.919" fill="#fefffe" d="M 296.5,62.5 C 300.5,62.5 304.5,62.5 308.5,62.5C 309.896,72.2999 311.896,72.6332 314.5,63.5C 318.459,62.3401 322.459,62.1735 326.5,63C 323.204,70.4272 320.038,77.9272 317,85.5C 316.501,89.1516 316.335,92.8183 316.5,96.5C 313.167,96.5 309.833,96.5 306.5,96.5C 306.665,92.8183 306.499,89.1516 306,85.5C 302.729,77.8497 299.563,70.1831 296.5,62.5 Z"/></g>
<g><path style="opacity:0.919" fill="#fefffe" d="M 367.5,62.5 C 372.43,62.1975 377.263,62.5308 382,63.5C 384.979,74.4124 387.479,85.4124 389.5,96.5C 385.833,96.5 382.167,96.5 378.5,96.5C 378.5,95.1667 378.5,93.8333 378.5,92.5C 375.833,92.5 373.167,92.5 370.5,92.5C 370.5,93.8333 370.5,95.1667 370.5,96.5C 366.833,96.5 363.167,96.5 359.5,96.5C 361.541,85.0019 364.208,73.6685 367.5,62.5 Z M 373.5,77.5 C 374.649,77.7911 375.316,78.6244 375.5,80C 375.167,80.8333 374.833,81.6667 374.5,82.5C 373.548,80.9547 373.215,79.288 373.5,77.5 Z"/></g>
<g><path style="opacity:0.895" fill="#fefffe" d="M 416.5,62.5 C 420.167,62.5 423.833,62.5 427.5,62.5C 427.5,73.8333 427.5,85.1667 427.5,96.5C 423.833,96.5 420.167,96.5 416.5,96.5C 416.5,85.1667 416.5,73.8333 416.5,62.5 Z"/></g>
<g><path style="opacity:0.953" fill="#fefffe" d="M 429.5,62.5 C 433.555,62.1758 437.555,62.5091 441.5,63.5C 443.098,67.1264 444.598,70.7931 446,74.5C 446.499,70.5138 446.666,66.5138 446.5,62.5C 449.833,62.5 453.167,62.5 456.5,62.5C 456.5,73.8333 456.5,85.1667 456.5,96.5C 452.445,96.8242 448.445,96.4909 444.5,95.5C 443,91.8333 441.5,88.1667 440,84.5C 439.501,88.4862 439.334,92.4862 439.5,96.5C 436.167,96.5 432.833,96.5 429.5,96.5C 429.5,85.1667 429.5,73.8333 429.5,62.5 Z"/></g>
<g><path style="opacity:0.883" fill="#fefffe" d="M 56.5,77.5 C 61.8437,77.334 67.1771,77.5006 72.5,78C 74.96,79.4578 77.1266,81.2911 79,83.5C 79.6667,87.8333 79.6667,92.1667 79,96.5C 74.2384,104.567 66.7384,106.9 56.5,103.5C 49.7819,98.5382 47.6152,91.8715 50,83.5C 52.0627,81.2659 54.2294,79.2659 56.5,77.5 Z"/></g>
<g><path style="opacity:1" fill="#6ef5bd" d="M 27.5,34.5 C 27.3433,35.8734 27.51,37.2068 28,38.5C 36.0677,44.456 44.9011,49.2894 54.5,53C 59.4945,52.918 64.4945,52.918 69.5,53C 75.735,60.0462 83.4017,64.7129 92.5,67C 98.5096,71.24 105.01,74.74 112,77.5C 112.334,75.1527 112.167,72.8194 111.5,70.5C 112.558,71.6002 113.392,72.9336 114,74.5C 114.499,78.8206 114.666,83.1539 114.5,87.5C 113.115,88.5736 111.949,89.9069 111,91.5C 103.615,87.4531 97.4485,81.9531 92.5,75C 91.552,74.5172 90.552,74.3505 89.5,74.5C 83.0352,68.5361 76.7019,62.3694 70.5,56C 67.3117,54.6842 63.9783,54.1842 60.5,54.5C 58.027,54.7991 55.8603,55.7991 54,57.5C 44.9073,54.0382 36.4073,49.7049 28.5,44.5C 25.5106,41.2808 25.1773,37.9475 27.5,34.5 Z"/></g>
<g><path style="opacity:1" fill="#bae2e1" d="M 18.5,68.5 C 17.3206,74.6556 19.6539,76.9889 25.5,75.5C 26.2822,77.6407 28.2822,78.974 31.5,79.5C 33.9435,78.2331 36.2769,76.7331 38.5,75C 39.5322,72.1261 41.5322,70.6261 44.5,70.5C 40.8196,75.1794 36.4862,79.1794 31.5,82.5C 29.8656,83.2066 28.5323,84.3732 27.5,86C 24.185,86.7054 21.685,85.5387 20,82.5C 18.4126,83.727 17.0793,83.3937 16,81.5C 15.8091,79.2922 15.3091,77.2922 14.5,75.5C 15.5957,72.9684 16.9291,70.6351 18.5,68.5 Z"/></g>
<g><path style="opacity:0.855" fill="#fefffe" d="M 325.5,83.5 C 331.487,85.6133 332.987,89.6133 330,95.5C 324.564,98.6928 321.73,97.0261 321.5,90.5C 321.197,87.1558 322.53,84.8225 325.5,83.5 Z"/></g>
<g><path style="opacity:1" fill="#b5d2e1" d="M 14.5,75.5 C 15.3091,77.2922 15.8091,79.2922 16,81.5C 17.0793,83.3937 18.4126,83.727 20,82.5C 21.685,85.5387 24.185,86.7054 27.5,86C 28.5323,84.3732 29.8656,83.2066 31.5,82.5C 30.0115,84.6451 29.0115,86.9785 28.5,89.5C 27.8365,91.0419 27.1698,92.7086 26.5,94.5C 22.2426,92.8842 18.5759,90.5509 15.5,87.5C 15.1667,87.5 14.8333,87.5 14.5,87.5C 14.5,83.5 14.5,79.5 14.5,75.5 Z"/></g>
<g><path style="opacity:1" fill="#95f2cd" d="M 89.5,74.5 C 90.552,74.3505 91.552,74.5172 92.5,75C 97.4485,81.9531 103.615,87.4531 111,91.5C 111.949,89.9069 113.115,88.5736 114.5,87.5C 114.5,89.5 114.5,91.5 114.5,93.5C 113.859,95.0423 112.859,96.3757 111.5,97.5C 105.74,96.407 102.406,93.0736 101.5,87.5C 97.5282,83.1927 93.5282,78.8593 89.5,74.5 Z"/></g>
<g><path style="opacity:1" fill="#a8bde2" d="M 15.5,87.5 C 18.5759,90.5509 22.2426,92.8842 26.5,94.5C 27.1698,92.7086 27.8365,91.0419 28.5,89.5C 28.4084,93.4067 29.7417,96.7401 32.5,99.5C 33.2916,100.967 33.2916,102.3 32.5,103.5C 27.6203,100.893 22.6203,98.56 17.5,96.5C 16.6475,93.5224 15.9808,90.5224 15.5,87.5 Z"/></g>
<g><path style="opacity:1" fill="#b6f3df" d="M 101.5,87.5 C 102.406,93.0736 105.74,96.407 111.5,97.5C 112.859,96.3757 113.859,95.0423 114.5,93.5C 115.979,101.936 113.979,109.269 108.5,115.5C 107.518,116.141 106.518,116.807 105.5,117.5C 102.554,116.194 99.2203,114.694 95.5,113C 96.3402,111.334 95.8402,111.167 94,112.5C 92.197,111.687 90.697,110.52 89.5,109C 92.9522,104.545 96.7856,100.378 101,96.5C 101.483,95.552 101.649,94.552 101.5,93.5C 101.5,91.5 101.5,89.5 101.5,87.5 Z"/></g>
<g><path style="opacity:1" fill="#97a4e2" d="M 14.5,87.5 C 14.8333,87.5 15.1667,87.5 15.5,87.5C 15.9808,90.5224 16.6475,93.5224 17.5,96.5C 22.6203,98.56 27.6203,100.893 32.5,103.5C 33.2916,102.3 33.2916,100.967 32.5,99.5C 39.4956,105.496 46.1623,111.829 52.5,118.5C 52.4142,119.496 52.7476,120.329 53.5,121C 40.0978,116.247 27.0978,110.414 14.5,103.5C 14.5,98.1667 14.5,92.8333 14.5,87.5 Z"/></g>
<g><path style="opacity:1" fill="#8993e2" d="M 14.5,103.5 C 27.0978,110.414 40.0978,116.247 53.5,121C 52.7476,120.329 52.4142,119.496 52.5,118.5C 55.3233,120.823 57.99,123.323 60.5,126C 64.9814,127.112 68.9814,126.279 72.5,123.5C 72.4894,125.017 71.8228,126.184 70.5,127C 80.5104,132.256 90.6771,137.089 101,141.5C 101.483,140.552 101.649,139.552 101.5,138.5C 104.199,142.092 103.865,145.426 100.5,148.5C 99.0695,148.421 97.7362,148.754 96.5,149.5C 75.7986,139.485 54.7986,129.985 33.5,121C 27.9543,117.734 22.6209,114.234 17.5,110.5C 15.7073,108.574 14.7073,106.241 14.5,103.5 Z"/></g>
<g><path style="opacity:0.977" fill="#04fba2" d="M 366.5,112.5 C 402.502,112.333 438.502,112.5 474.5,113C 490.508,121.488 495.341,134.321 489,151.5C 484.625,159.113 478.125,163.946 469.5,166C 435.453,166.972 401.453,166.639 367.5,165C 356.055,160.125 349.722,151.459 348.5,139C 349.412,126.666 355.412,117.833 366.5,112.5 Z"/></g>
<g><path style="opacity:1" fill="#b9dde2" d="M 101.5,93.5 C 101.649,94.552 101.483,95.552 101,96.5C 96.7856,100.378 92.9522,104.545 89.5,109C 90.697,110.52 92.197,111.687 94,112.5C 95.8402,111.167 96.3402,111.334 95.5,113C 99.2203,114.694 102.554,116.194 105.5,117.5C 106.518,116.807 107.518,116.141 108.5,115.5C 107.581,118.089 105.914,120.089 103.5,121.5C 102.279,122.028 101.113,122.695 100,123.5C 97.028,121.846 94.028,120.179 91,118.5C 90.6667,118.833 90.3333,119.167 90,119.5C 88.172,117.919 86.172,116.585 84,115.5C 84.1343,113.811 84.6343,112.144 85.5,110.5C 90.8612,104.807 96.1946,99.1404 101.5,93.5 Z"/></g>
<g><path style="opacity:1" fill="#aec9e2" d="M 85.5,110.5 C 84.6343,112.144 84.1343,113.811 84,115.5C 86.172,116.585 88.172,117.919 90,119.5C 90.3333,119.167 90.6667,118.833 91,118.5C 94.028,120.179 97.028,121.846 100,123.5C 101.113,122.695 102.279,122.028 103.5,121.5C 102.674,123.264 101.341,124.598 99.5,125.5C 97.9064,125.92 96.4064,126.586 95,127.5C 94.228,127.355 93.5613,127.022 93,126.5C 92.6924,127.308 92.1924,127.975 91.5,128.5C 86.6099,125.979 81.6099,123.645 76.5,121.5C 77.9524,120.06 78.9524,118.394 79.5,116.5C 81.1667,114.167 83.1667,112.167 85.5,110.5 Z"/></g>
<g><path style="opacity:1" fill="#7d82e2" d="M 17.5,110.5 C 22.6209,114.234 27.9543,117.734 33.5,121C 54.7986,129.985 75.7986,139.485 96.5,149.5C 97.7362,148.754 99.0695,148.421 100.5,148.5C 100.082,149.222 99.4158,149.722 98.5,150C 91.924,150.841 85.5907,150.341 79.5,148.5C 60.609,143.388 43.2757,135.054 27.5,123.5C 22.6978,120.356 19.3645,116.023 17.5,110.5 Z"/></g>
<g><path style="opacity:1" fill="#020905" d="M 369.5,124.5 C 375.593,124.139 381.593,124.639 387.5,126C 393.786,131.974 394.119,138.307 388.5,145C 384.454,147.174 380.121,148.007 375.5,147.5C 375.5,149.5 375.5,151.5 375.5,153.5C 373.5,153.5 371.5,153.5 369.5,153.5C 369.5,143.833 369.5,134.167 369.5,124.5 Z"/></g>
<g><path style="opacity:1" fill="#020a06" d="M 395.5,124.5 C 397.5,124.5 399.5,124.5 401.5,124.5C 401.5,132.167 401.5,139.833 401.5,147.5C 406.5,147.5 411.5,147.5 416.5,147.5C 416.5,149.5 416.5,151.5 416.5,153.5C 409.5,153.5 402.5,153.5 395.5,153.5C 395.5,143.833 395.5,134.167 395.5,124.5 Z"/></g>
<g><path style="opacity:1" fill="#010402" d="M 436.5,148.5 C 432.702,147.517 428.702,147.183 424.5,147.5C 424.5,149.5 424.5,151.5 424.5,153.5C 422.833,153.5 421.167,153.5 419.5,153.5C 419.334,145.826 419.5,138.159 420,130.5C 424.563,124.441 430.397,122.941 437.5,126C 439.359,127.558 440.859,129.391 442,131.5C 442.5,138.826 442.666,146.159 442.5,153.5C 440.5,153.5 438.5,153.5 436.5,153.5C 436.5,151.833 436.5,150.167 436.5,148.5 Z"/></g>
<g><path style="opacity:1" fill="#020805" d="M 445.5,124.5 C 447.5,124.5 449.5,124.5 451.5,124.5C 451.335,128.182 451.501,131.848 452,135.5C 456.163,139.747 459.829,139.414 463,134.5C 463.498,131.183 463.665,127.85 463.5,124.5C 465.5,124.5 467.5,124.5 469.5,124.5C 470.286,130.901 468.953,136.735 465.5,142C 463.975,143.009 462.308,143.509 460.5,143.5C 460.5,146.833 460.5,150.167 460.5,153.5C 458.5,153.5 456.5,153.5 454.5,153.5C 454.817,150.428 454.484,147.428 453.5,144.5C 446.077,139.93 443.41,133.263 445.5,124.5 Z"/></g>
<g><path style="opacity:1" fill="#04fba2" d="M 375.5,130.5 C 378.187,130.336 380.854,130.503 383.5,131C 387.5,134.333 387.5,137.667 383.5,141C 380.854,141.497 378.187,141.664 375.5,141.5C 375.5,137.833 375.5,134.167 375.5,130.5 Z"/></g>
<g><path style="opacity:1" fill="#04f39d" d="M 427.5,130.5 C 435.156,130.167 438.156,133.833 436.5,141.5C 432.5,141.5 428.5,141.5 424.5,141.5C 423.944,137.334 424.944,133.668 427.5,130.5 Z"/></g>
<g><path style="opacity:1" fill="#7572e2" d="M 27.5,123.5 C 43.2757,135.054 60.609,143.388 79.5,148.5C 74.4124,147.978 69.4124,146.978 64.5,145.5C 53.4216,149.069 42.0883,150.569 30.5,150C 25.482,146.278 24.6487,141.778 28,136.5C 29.4578,134.04 31.2911,131.873 33.5,130C 31.2941,127.963 29.2941,125.797 27.5,123.5 Z"/></g>
<g><path style="opacity:1" fill="#9aabe2" d="M 79.5,116.5 C 78.9524,118.394 77.9524,120.06 76.5,121.5C 81.6099,123.645 86.6099,125.979 91.5,128.5C 92.1924,127.975 92.6924,127.308 93,126.5C 93.5613,127.022 94.228,127.355 95,127.5C 96.4064,126.586 97.9064,125.92 99.5,125.5C 98.657,127.173 97.3237,128.34 95.5,129C 98.1461,131.802 100.146,134.968 101.5,138.5C 101.649,139.552 101.483,140.552 101,141.5C 90.6771,137.089 80.5104,132.256 70.5,127C 71.8228,126.184 72.4894,125.017 72.5,123.5C 74.5,120.833 76.8333,118.5 79.5,116.5 Z"/></g>
<g><path style="opacity:1" fill="#03ac70" d="M 436.5,148.5 C 432.833,148.5 429.167,148.5 425.5,148.5C 425.784,150.415 425.451,152.081 424.5,153.5C 424.5,151.5 424.5,149.5 424.5,147.5C 428.702,147.183 432.702,147.517 436.5,148.5 Z"/></g>
</svg>
