<?xml version="1.0" encoding="UTF-8"?>
<svg version="1.1" xmlns="http://www.w3.org/2000/svg" width="375" height="138">
<path d="M0 0 C4.70630378 0.82907382 9.35253658 1.90385326 13.99609375 3.02734375 C14.69774658 3.19492188 15.39939941 3.3625 16.12231445 3.53515625 C17.61391518 3.90442004 19.09459733 4.31773266 20.5703125 4.74609375 C24.07743207 5.11259338 27.11526823 4.12531306 30.4375 3.125 C38.89970747 0.66357556 47.14860128 -1.06315683 56 0 C59.3125 2 59.3125 2 61 5 C61.3441243 11.99719411 58.47980182 15.8489129 54 21 C54.639375 21.61875 55.27875 22.2375 55.9375 22.875 C56.96292638 23.91214554 57.98285517 24.95473135 59 26 C60.08667969 27.10988281 60.08667969 27.10988281 61.1953125 28.2421875 C62.36707031 29.48355469 62.36707031 29.48355469 63.5625 30.75 C64.30628906 31.52859375 65.05007812 32.3071875 65.81640625 33.109375 C71.83702252 41.07942159 72.66865203 48.56105569 72.57641602 58.37426758 C72.56254049 60.43149674 72.59671676 62.48416787 72.63476562 64.54101562 C72.70145863 75.60754778 70.14660584 83.30390137 62.4375 91.375 C61.69371094 92.16648437 60.94992188 92.95796875 60.18359375 93.7734375 C58.13518 95.86215992 56.07570935 97.93841112 54 100 C54.42152344 100.4846875 54.84304687 100.969375 55.27734375 101.46875 C59.24063224 106.31795003 61.3129296 109.63709818 61 116 C59.3125 119 59.3125 119 56 121 C47.29915299 122.61709821 38.43652875 120.01404399 30.00390625 117.97265625 C29.30225342 117.80507812 28.60060059 117.6375 27.87768555 117.46484375 C26.38608482 117.09557996 24.90540267 116.68226734 23.4296875 116.25390625 C19.92256793 115.88740662 16.88473177 116.87468694 13.5625 117.875 C6.98357105 119.78863029 0.74911903 121.14548176 -6.125 121.3125 C-7.64480469 121.36857422 -7.64480469 121.36857422 -9.1953125 121.42578125 C-12 121 -12 121 -14.3046875 119.35546875 C-16.42744282 116.40611055 -16.95896985 114.63800621 -17 111 C-15.56640625 108.0078125 -15.56640625 108.0078125 -13.5625 105.125 C-12.90378906 104.15820312 -12.24507812 103.19140625 -11.56640625 102.1953125 C-10.79103516 101.10863281 -10.79103516 101.10863281 -10 100 C-10.639375 99.38125 -11.27875 98.7625 -11.9375 98.125 C-12.96292638 97.08785446 -13.98285517 96.04526865 -15 95 C-15.72445313 94.26007813 -16.44890625 93.52015625 -17.1953125 92.7578125 C-18.36707031 91.51644531 -18.36707031 91.51644531 -19.5625 90.25 C-20.30628906 89.47140625 -21.05007812 88.6928125 -21.81640625 87.890625 C-27.83702252 79.92057841 -28.66865203 72.43894431 -28.57641602 62.62573242 C-28.56254049 60.56850326 -28.59671676 58.51583213 -28.63476562 56.45898438 C-28.70145863 45.39245222 -26.14660584 37.69609863 -18.4375 29.625 C-17.69371094 28.83351563 -16.94992188 28.04203125 -16.18359375 27.2265625 C-14.13518 25.13784008 -12.07570935 23.06158888 -10 21 C-10.77537109 19.91332031 -10.77537109 19.91332031 -11.56640625 18.8046875 C-12.22511719 17.83789062 -12.88382813 16.87109375 -13.5625 15.875 C-14.22378906 14.92367188 -14.88507812 13.97234375 -15.56640625 12.9921875 C-17.30970851 9.35357842 -17.27132241 7.79852606 -16 4 C-11.73035078 -1.74392271 -6.56738751 -0.71279338 0 0 Z M11 31 C10.37738281 31.60972656 9.75476563 32.21945313 9.11328125 32.84765625 C7.39048702 34.54802799 5.69069471 36.26776487 4 38 C1.46982876 40.59041341 -0.9532292 42.96362271 -3.8125 45.1875 C-4.534375 45.785625 -5.25625 46.38375 -6 47 C-6 47.66 -6 48.32 -6 49 C-6.66 49 -7.32 49 -8 49 C-11.02627354 51.78545602 -13.53248474 54.77277244 -15 58.625 C-15 64.37535633 -11.73639322 67.98337729 -8 72 C-7.34 72 -6.68 72 -6 72 C-6 72.66 -6 73.32 -6 74 C-4.61088239 75.4081132 -4.61088239 75.4081132 -2.8125 76.8125 C0.32907113 79.36545432 3.16043334 82.11381359 6 85 C7.89366464 86.91882082 9.79027212 88.83470328 11.6875 90.75 C12.17283203 91.24371094 12.65816406 91.73742187 13.15820312 92.24609375 C16.20415403 95.31305121 17.81097564 96.8097561 22.125 97.5 C26.12496689 96.98387524 26.65881164 96.78376011 29.4296875 94.2421875 C30.12562012 93.60571289 30.82155273 92.96923828 31.53857422 92.31347656 C32.35084473 91.5500293 33.16311523 90.78658203 34 90 C34.476651 89.55765015 34.953302 89.11530029 35.44439697 88.6595459 C38.7654814 85.57589741 42.03970996 82.44877997 45.28466797 79.28515625 C46.43386406 78.17292548 47.59189708 77.06975748 48.75830078 75.97558594 C50.46519164 74.37230216 52.1405622 72.74117123 53.8125 71.1015625 C54.33424805 70.62312897 54.85599609 70.14469543 55.39355469 69.65176392 C58.19267311 66.83762137 59.42187488 64.47526861 59.74365234 60.59521484 C59.38096406 54.93637425 56.26817969 52.09756735 52.2890625 48.375 C51.60572845 47.70202881 50.92239441 47.02905762 50.21835327 46.33569336 C48.04084418 44.20174625 45.83382509 42.10146503 43.625 40 C42.14644167 38.55803323 40.66985521 37.1140416 39.1953125 35.66796875 C36.49934797 33.03856128 33.79854229 30.41491479 31.07275391 27.81640625 C30.25334824 27.03438843 30.25334824 27.03438843 29.41738892 26.23657227 C27.21143944 24.3120363 25.82167782 23.97146845 22.875 23.5 C17.31583085 24.21731215 14.8388796 27.11568988 11 31 Z " fill="#78C9CD" transform="translate(34,5)"/>
<path d="M0 0 C0.70003647 -0.00511093 1.40007294 -0.01022186 2.12132263 -0.01548767 C4.42032581 -0.02931252 6.71902676 -0.02843217 9.01806641 -0.02612305 C10.6270051 -0.03001418 12.23594278 -0.03434971 13.84487915 -0.03910828 C17.21221246 -0.04655542 20.5794409 -0.04629038 23.94677734 -0.04101562 C28.24615136 -0.03522611 32.54509386 -0.05214657 36.84439659 -0.0753603 C40.16627481 -0.09014633 43.4880503 -0.09096269 46.8099556 -0.08785057 C48.39427163 -0.08836144 49.97859378 -0.0935549 51.56287766 -0.10366249 C69.72924819 -0.20533842 69.72924819 -0.20533842 76.55712891 5.7121582 C81.88403145 11.95224404 83.11144668 15.96492325 83.02197266 24.1965332 C82.49530456 30.04180725 80.19012997 34.22709803 75.86962891 38.1496582 C70.4615896 41.82712493 65.777403 42.52708422 59.30566406 42.56518555 C58.58612045 42.57190277 57.86657684 42.57862 57.12522888 42.58554077 C54.76131161 42.6044414 52.39767941 42.6084408 50.03369141 42.6105957 C48.37991217 42.61702881 46.72613407 42.62375755 45.07235718 42.63076782 C41.61087405 42.64272048 38.14949058 42.64645069 34.68798828 42.64526367 C30.2674484 42.64506052 25.84755165 42.67236768 21.42716408 42.70680809 C18.01263533 42.72911941 14.59826039 42.73309994 11.18366623 42.73204422 C9.55467893 42.73439361 7.92568697 42.74317966 6.296772 42.75870895 C-10.8870047 42.90720604 -10.8870047 42.90720604 -18.27880859 36.52856445 C-22.92713207 30.71144288 -24.75461645 26.38081251 -24.56396484 18.83325195 C-23.75410449 12.118587 -20.26526409 7.7712025 -15.23193359 3.5012207 C-10.37241337 0.4856291 -5.62043676 0.02056208 0 0 Z " fill="#04FCA3" transform="translate(286.25537109375,83.725341796875)"/>
<path d="M0 0 C3.33387324 0.06967902 4.34939157 0.17518389 7.125 2.1875 C9.52468213 5.68703644 9.74114006 8.43221515 9.6875 12.5625 C9.67847656 13.46355469 9.66945313 14.36460938 9.66015625 15.29296875 C9.64855469 15.98003906 9.63695312 16.66710937 9.625 17.375 C8.305 17.705 6.985 18.035 5.625 18.375 C6.264375 18.931875 6.90375 19.48875 7.5625 20.0625 C10.60877683 23.47802251 10.5323632 26.17072162 10.875 30.625 C10.57320784 35.15188236 9.64634541 39.29071771 7.625 43.375 C4.502998 45.45633467 3.69233011 45.6487822 0.125 45.625 C-1.03515625 45.63273437 -1.03515625 45.63273437 -2.21875 45.640625 C-4.375 45.375 -4.375 45.375 -7.375 43.375 C-7.705 43.705 -8.035 44.035 -8.375 44.375 C-9.89428038 44.44679964 -11.41667482 44.45892007 -12.9375 44.4375 C-13.76378906 44.42847656 -14.59007812 44.41945312 -15.44140625 44.41015625 C-16.07949219 44.39855469 -16.71757812 44.38695312 -17.375 44.375 C-17.375 42.725 -17.375 41.075 -17.375 39.375 C-19.025 39.375 -20.675 39.375 -22.375 39.375 C-22.87 41.85 -22.87 41.85 -23.375 44.375 C-26.015 44.375 -28.655 44.375 -31.375 44.375 C-31.02329859 34.86147681 -29.76580182 25.53398507 -28.375 16.125 C-28.19678711 14.91030029 -28.01857422 13.69560059 -27.83496094 12.4440918 C-26.50453695 3.63407391 -26.50453695 3.63407391 -25.375 1.375 C-21.745 1.375 -18.115 1.375 -14.375 1.375 C-13.95927734 3.92154297 -13.95927734 3.92154297 -13.53515625 6.51953125 C-13.16939921 8.74220863 -12.80350677 10.96486373 -12.4375 13.1875 C-12.25509766 14.30705078 -12.07269531 15.42660156 -11.88476562 16.58007812 C-11.70751953 17.65322266 -11.53027344 18.72636719 -11.34765625 19.83203125 C-11.10414429 21.3166687 -11.10414429 21.3166687 -10.85571289 22.83129883 C-10.41356807 25.48356614 -10.41356807 25.48356614 -9.375 28.375 C-7.725 28.045 -6.075 27.715 -4.375 27.375 C-5.014375 26.776875 -5.65375 26.17875 -6.3125 25.5625 C-10.23205821 21.40539281 -9.64087928 16.75119437 -9.6015625 11.33203125 C-9.11875645 5.0305799 -6.60332034 0.10968971 0 0 Z M-1.375 14.375 C-1.375 15.035 -1.375 15.695 -1.375 16.375 C-0.385 16.705 0.605 17.035 1.625 17.375 C1.625 16.385 1.625 15.395 1.625 14.375 C0.635 14.375 -0.355 14.375 -1.375 14.375 Z M-20.375 20.375 C-20.375 22.355 -20.375 24.335 -20.375 26.375 C-20.045 26.375 -19.715 26.375 -19.375 26.375 C-19.375 24.395 -19.375 22.415 -19.375 20.375 C-19.705 20.375 -20.035 20.375 -20.375 20.375 Z M-2.375 28.375 C-1.385 29.86 -1.385 29.86 -0.375 31.375 C0.285 31.375 0.945 31.375 1.625 31.375 C1.295 30.385 0.965 29.395 0.625 28.375 C-0.365 28.375 -1.355 28.375 -2.375 28.375 Z " fill="#FFFFFF" transform="translate(309.375,25.625)"/>
<path d="M0 0 C2.64 0 5.28 0 8 0 C8 9.24 8 18.48 8 28 C10.97 28 13.94 28 17 28 C17.33 28.33 17.66 28.66 18 29 C18.11593506 28.19256348 18.23187012 27.38512695 18.35131836 26.55322266 C18.87647154 22.90995609 19.40691704 19.26747959 19.9375 15.625 C20.11990234 14.35398437 20.30230469 13.08296875 20.49023438 11.7734375 C20.66748047 10.56171875 20.84472656 9.35 21.02734375 8.1015625 C21.18968506 6.98088379 21.35202637 5.86020508 21.51928711 4.70556641 C22 2 22 2 23 0 C26.63 0 30.26 0 34 0 C35.34285112 7.99843845 36.67591403 15.99843437 38 24 C38.12729492 24.76425293 38.25458984 25.52850586 38.38574219 26.31591797 C38.67900816 28.08476094 38.96495255 29.85481404 39.25 31.625 C39.39953125 32.54539063 39.5490625 33.46578125 39.703125 34.4140625 C40.03381923 37.29458332 40.05097248 40.1030639 40 43 C37.03 43 34.06 43 31 43 C31 41.35 31 39.7 31 38 C29.35 38 27.7 38 26 38 C25.67 39.65 25.34 41.3 25 43 C16.75 43 8.5 43 0 43 C0 28.81 0 14.62 0 0 Z M28 19 C28 20.98 28 22.96 28 25 C28.33 25 28.66 25 29 25 C29 23.02 29 21.04 29 19 C28.67 19 28.34 19 28 19 Z " fill="#FFFFFF" transform="translate(195,27)"/>
<path d="M0 0 C5.94 0 11.88 0 18 0 C18.66 2.97 19.32 5.94 20 9 C20.33 6.03 20.66 3.06 21 0 C23.64 0 26.28 0 29 0 C29 14.19 29 28.38 29 43 C26.03 43 23.06 43 20 43 C18.86642725 39.67485327 17.8530248 36.4120992 17 33 C16.67 36.3 16.34 39.6 16 43 C10.72 43 5.44 43 0 43 C0 28.81 0 14.62 0 0 Z " fill="#FFFFFF" transform="translate(321,27)"/>
<path d="M0 0 C2.90824128 0.77250159 4.11227762 2.22711827 6 4.53125 C10.66646852 14.64773587 10.69811537 28.1033699 6.97265625 38.5 C5.44683129 41.68646176 3.91953312 43.54065923 1 45.53125 C-2.5 46.21875 -2.5 46.21875 -6 45.53125 C-10.73768634 41.21469133 -12.59993935 36.82892175 -13.20483398 30.33081055 C-13.30375272 27.93586975 -13.32207217 25.55312196 -13.3125 23.15625 C-13.32861328 22.35703125 -13.34472656 21.5578125 -13.36132812 20.734375 C-13.36683883 13.92314522 -12.09751763 7.71636936 -8.3125 1.96875 C-5.42434221 0.17340867 -3.34519512 0.05226867 0 0 Z M-3 16.53125 C-5.23551759 19.88452639 -5.17283528 20.43868657 -4.625 24.21875 C-4.51414062 25.02699219 -4.40328125 25.83523437 -4.2890625 26.66796875 C-4.19367188 27.28285156 -4.09828125 27.89773437 -4 28.53125 C-2.68 28.53125 -1.36 28.53125 0 28.53125 C0.92470553 23.81525182 1.22923777 20.85859391 -1 16.53125 C-1.66 16.53125 -2.32 16.53125 -3 16.53125 Z " fill="#FFFFFF" transform="translate(364,25.46875)"/>
<path d="M0 0 C1.9296875 0.3359375 1.9296875 0.3359375 4.2421875 1.7734375 C8.51494979 8.26170617 9.41653375 15.21796505 9.3046875 22.8359375 C9.31628906 23.62613281 9.32789063 24.41632812 9.33984375 25.23046875 C9.30669308 31.98215562 8.03062053 38.25957127 4.1796875 43.8984375 C0.91203514 45.98610428 -1.27553681 45.87804831 -5.0703125 45.3359375 C-9.29728042 42.51795888 -10.78784802 38.08877463 -12.0703125 33.3359375 C-12.47813835 29.84530649 -12.49087657 26.40940214 -12.4453125 22.8984375 C-12.45691406 22.00833984 -12.46851563 21.11824219 -12.48046875 20.20117188 C-12.45203206 13.71286698 -11.86260635 6.88177919 -7.71240234 1.61157227 C-5.31092909 -0.25397899 -2.95191022 -0.14056715 0 0 Z M-3.0703125 16.3359375 C-4.25337978 18.70207206 -4.20385858 20.20374486 -4.1953125 22.8359375 C-4.19789063 23.63 -4.20046875 24.4240625 -4.203125 25.2421875 C-4.20309246 27.39512284 -4.20309246 27.39512284 -3.0703125 29.3359375 C-2.0803125 29.0059375 -1.0903125 28.6759375 -0.0703125 28.3359375 C1.43902967 25.31725316 1.10479422 22.66296521 0.9296875 19.3359375 C0.2696875 18.3459375 -0.3903125 17.3559375 -1.0703125 16.3359375 C-1.7303125 16.3359375 -2.3903125 16.3359375 -3.0703125 16.3359375 Z " fill="#FFFFFF" transform="translate(146.0703125,25.6640625)"/>
<path d="M0 0 C2.5 1.75 2.5 1.75 4 5 C4.60293903 8.99706994 4.87118943 12.96178864 5 17 C3.68 17.33 2.36 17.66 1 18 C1.474375 18.433125 1.94875 18.86625 2.4375 19.3125 C5.56739847 22.69279035 5.19436918 26.48943718 5.25 30.875 C5.27578125 32.08929688 5.3015625 33.30359375 5.328125 34.5546875 C4.97446831 38.26808278 4.25141594 40.06474277 2 43 C-1.67682095 45.45121397 -4.72920963 45.82418762 -9 45 C-11.70896155 42.92505073 -13.41255817 41.31044715 -14.8125 38.1875 C-15.10428901 34.78329487 -15.05693812 31.41628712 -15 28 C-13.35 27.67 -11.7 27.34 -10 27 C-10.65097656 26.34 -11.30195312 25.68 -11.97265625 25 C-14.48912308 21.27621094 -14.56146649 18.3348281 -14.4375 14 C-14.44458984 13.30132812 -14.45167969 12.60265625 -14.45898438 11.8828125 C-14.40444513 7.43576667 -13.7326821 4.52776564 -11 1 C-7.5111779 -0.74441105 -3.80696563 -0.55546474 0 0 Z M-6 14 C-5.67 14.99 -5.34 15.98 -5 17 C-4.34 17 -3.68 17 -3 17 C-3.33 16.01 -3.66 15.02 -4 14 C-4.66 14 -5.32 14 -6 14 Z M-7 28 C-6.67 28.99 -6.34 29.98 -6 31 C-5.01 30.67 -4.02 30.34 -3 30 C-3.33 29.34 -3.66 28.68 -4 28 C-4.99 28 -5.98 28 -7 28 Z " fill="#FFFFFF" transform="translate(128,26)"/>
<path d="M0 0 C3.01360054 0.60272011 4.19533386 1.91304122 5.93359375 4.38671875 C7.73043187 8.19178771 8.28261098 11.51348007 8.55859375 15.69921875 C8.63335937 16.76785156 8.708125 17.83648437 8.78515625 18.9375 C8.83414062 19.74574219 8.883125 20.55398437 8.93359375 21.38671875 C6.29359375 21.38671875 3.65359375 21.38671875 0.93359375 21.38671875 C0.64484375 20.74734375 0.35609375 20.10796875 0.05859375 19.44921875 C-0.89464076 17.23465796 -0.89464076 17.23465796 -3.06640625 16.38671875 C-3.06640625 20.67671875 -3.06640625 24.96671875 -3.06640625 29.38671875 C-0.55557511 28.13130318 -0.19515179 26.88608387 0.93359375 24.38671875 C3.57359375 24.38671875 6.21359375 24.38671875 8.93359375 24.38671875 C8.5368818 31.95160515 7.85049469 37.86552229 3.68359375 44.32421875 C0.71644995 46.12569891 -1.69928925 45.80022435 -5.06640625 45.38671875 C-9.29308707 42.56893153 -10.78620181 38.14007042 -12.06640625 33.38671875 C-12.47400316 29.87532648 -12.48700761 26.41829036 -12.44140625 22.88671875 C-12.45300781 21.98824219 -12.46460938 21.08976562 -12.4765625 20.1640625 C-12.44607723 13.18293609 -10.87411546 8.19242235 -7.87890625 1.88671875 C-5.39892808 -0.16567698 -3.1448497 -0.16734063 0 0 Z " fill="#FFFFFF" transform="translate(270.06640625,25.61328125)"/>
<path d="M0 0 C0.81210937 -0.02900391 1.62421875 -0.05800781 2.4609375 -0.08789062 C6.51879316 -0.13084838 8.68201335 -0.03986209 12.203125 2.14453125 C16.41043002 6.60074172 16.78953077 9.64438001 16.7109375 15.5703125 C15.95026994 20.09563984 13.87175999 21.63239761 10.25 24.3125 C9.59 24.3125 8.93 24.3125 8.25 24.3125 C8.25 24.9725 8.25 25.6325 8.25 26.3125 C2.97 26.3125 -2.31 26.3125 -7.75 26.3125 C-7.75 25.6525 -7.75 24.9925 -7.75 24.3125 C-8.348125 24.044375 -8.94625 23.77625 -9.5625 23.5 C-11.88171706 22.24099645 -13.14802867 21.40807594 -14.75 19.3125 C-15.50888844 14.51885471 -16.11588205 8.73094348 -13.66015625 4.3828125 C-12.3125 3.0625 -12.3125 3.0625 -9.75 1.3125 C-7.5966026 -0.8408974 -2.9703387 0.03470022 0 0 Z " fill="#FFFFFF" transform="translate(55.75,52.6875)"/>
<path d="M0 0 C4.95 0 9.9 0 15 0 C20.64871875 8.47307812 20.8798634 16.4275489 19.25 26.25 C18.5756653 29.29387192 18.00236421 30.99645369 16.25 33.625 C13.35435714 35.39455953 11.33273623 35.30297602 8 35 C8 37.64 8 40.28 8 43 C5.36 43 2.72 43 0 43 C0 28.81 0 14.62 0 0 Z M8 15 C8 16.65 8 18.3 8 20 C8.99 20 9.98 20 11 20 C11 18.35 11 16.7 11 15 C10.01 15 9.02 15 8 15 Z " fill="#FFFFFF" transform="translate(174,27)"/>
<path d="M0 0 C2.97 0 5.94 0 9 0 C9.33 2.97 9.66 5.94 10 9 C10.66 9 11.32 9 12 9 C12.33 6.03 12.66 3.06 13 0 C15.97 0 18.94 0 22 0 C21.3643468 6.22651201 20.05595673 12.07047982 18.5 18.125 C16.42011063 26.47325068 15.15951478 34.37170041 15 43 C12.36 43 9.72 43 7 43 C6.99742187 42.27941406 6.99484375 41.55882812 6.9921875 40.81640625 C6.63991842 31.03506806 4.50045099 21.99052605 2.08349609 12.53344727 C1.81746582 11.48858154 1.55143555 10.44371582 1.27734375 9.3671875 C1.03234131 8.42987793 0.78733887 7.49256836 0.53491211 6.52685547 C0 4 0 4 0 0 Z " fill="#FFFFFF" transform="translate(230,27)"/>
<path d="M0 0 C2.64 0 5.28 0 8 0 C8 9.24 8 18.48 8 28 C10.97 28 13.94 28 17 28 C17 32.95 17 37.9 17 43 C11.39 43 5.78 43 0 43 C0 28.81 0 14.62 0 0 Z " fill="#FFFFFF" transform="translate(156,27)"/>
<path d="M0 0 C3.95065253 0.80625562 6.63285195 2.44031246 9.0625 5.625 C9.78022563 8.60180242 9.63625627 11.39754835 9.4375 14.4375 C9.41042969 15.22576172 9.38335937 16.01402344 9.35546875 16.82617188 C9.28513676 18.76030157 9.17752458 20.69301304 9.0625 22.625 C7.7425 22.625 6.4225 22.625 5.0625 22.625 C5.0625 21.305 5.0625 19.985 5.0625 18.625 C2.0925 18.625 -0.8775 18.625 -3.9375 18.625 C-3.9375 19.945 -3.9375 21.265 -3.9375 22.625 C-5.2575 22.625 -6.5775 22.625 -7.9375 22.625 C-8.07298815 19.89416098 -8.17179855 17.17008193 -8.25 14.4375 C-8.29189453 13.66857422 -8.33378906 12.89964844 -8.37695312 12.10742188 C-8.46953091 7.79329724 -8.34021876 6.14422435 -5.6015625 2.61328125 C-2.9375 0.625 -2.9375 0.625 0 0 Z " fill="#000B07" transform="translate(322.9375,93.375)"/>
<path d="M0 0 C12.55555556 0 12.55555556 0 16 3 C18 6 18 6 17.875 9.4375 C16.93034068 13.28361296 16.05957584 14.5894251 13 17 C10.29120665 18.35439668 7.99066732 18.06501451 5 18 C5 19.32 5 20.64 5 22 C3.35 22 1.7 22 0 22 C0 14.74 0 7.48 0 0 Z " fill="#00180F" transform="translate(277,94)"/>
<path d="M0 0 C2 1.375 2 1.375 3 3 C3 3.66 3 4.32 3 5 C3.66 5 4.32 5 5 5 C5 5.66 5 6.32 5 7 C5.99 7.33 6.98 7.66 8 8 C8 8.66 8 9.32 8 10 C8.87398437 10.38671875 8.87398437 10.38671875 9.765625 10.78125 C12.1802903 12.09834017 13.81740177 13.55088384 15.75 15.5 C16.67039062 16.41265625 16.67039062 16.41265625 17.609375 17.34375 C19 19 19 19 19 21 C19.639375 21.268125 20.27875 21.53625 20.9375 21.8125 C23 23 23 23 24 26 C24.99 26.33 25.98 26.66 27 27 C27 27.66 27 28.32 27 29 C27.639375 29.185625 28.27875 29.37125 28.9375 29.5625 C31 31 31 31 31.75 34.625 C31.8325 35.73875 31.915 36.8525 32 38 C31.73082764 37.40583786 31.46165527 36.81167572 31.18432617 36.19950867 C29.99881545 33.99780008 28.81331051 32.56558338 27.05078125 30.80786133 C26.45676514 30.21076859 25.86274902 29.61367584 25.25073242 28.99848938 C24.29130737 28.04984261 24.29130737 28.04984261 23.3125 27.08203125 C22.65419189 26.42418137 21.99588379 25.76633148 21.31762695 25.08854675 C19.92798406 23.70192008 18.53591638 22.31771978 17.14160156 20.93579102 C15.00266663 18.81514383 12.87187332 16.68657214 10.7421875 14.55664062 C9.39109661 13.210464 8.03954964 11.86474494 6.6875 10.51953125 C5.72807495 9.56177544 5.72807495 9.56177544 4.74926758 8.58467102 C3.85824341 7.70321663 3.85824341 7.70321663 2.94921875 6.80395508 C2.42674561 6.28529373 1.90427246 5.76663239 1.3659668 5.23225403 C-0.7971952 3.28084123 -2.19627593 2.96859585 -5.125 2.5 C-10.67763199 3.21646864 -13.17158202 6.1115284 -17 10 C-17.65742187 10.66773438 -18.31484375 11.33546875 -18.9921875 12.0234375 C-20.19137008 13.24252352 -21.38013828 14.47200678 -22.5546875 15.71484375 C-24 17 -24 17 -26 17 C-26.2475 17.5775 -26.495 18.155 -26.75 18.75 C-28.18299988 21.32939979 -29.78424676 23.06121592 -32 25 C-32.66 25 -33.32 25 -34 25 C-30.71979975 17.81859073 -24.72342688 12.5517248 -18.78125 7.53515625 C-16.86744786 5.9383604 -16.86744786 5.9383604 -14.8125 3.6875 C-10.40443725 -0.41655842 -5.72765671 -0.4619078 0 0 Z " fill="#5BEEB1" transform="translate(62,27)"/>
<path d="M0 0 C1.32 0 2.64 0 4 0 C4.06058594 0.63808594 4.12117188 1.27617188 4.18359375 1.93359375 C4.26738281 2.75988281 4.35117187 3.58617188 4.4375 4.4375 C4.51871094 5.26121094 4.59992188 6.08492188 4.68359375 6.93359375 C4.78930815 8.98662025 4.78930815 8.98662025 6 10 C7.65 10 9.3 10 11 10 C11.66 6.7 12.32 3.4 13 0 C14.32 0 15.64 0 17 0 C17.29549748 3.3818045 17.43724974 6.62693059 17 10 C14.5625 12.6875 14.5625 12.6875 12 15 C11.11472891 18.68441504 11.11472891 18.68441504 11 22 C9.35 22 7.7 22 6 22 C6 19.69 6 17.38 6 15 C5.38125 14.731875 4.7625 14.46375 4.125 14.1875 C2 13 2 13 0 10 C-0.1953125 7.51953125 -0.1953125 7.51953125 -0.125 4.8125 C-0.10695313 3.91144531 -0.08890625 3.01039062 -0.0703125 2.08203125 C-0.04710937 1.39496094 -0.02390625 0.70789063 0 0 Z " fill="#000B07" transform="translate(335,94)"/>
<path d="M0 0 C1.65 0 3.3 0 5 0 C5 5.94 5 11.88 5 18 C8.63 18 12.26 18 16 18 C16 19.32 16 20.64 16 22 C10.72 22 5.44 22 0 22 C0 14.74 0 7.48 0 0 Z " fill="#00170F" transform="translate(297,94)"/>
<path d="M0 0 C1.32 0 2.64 0 4 0 C6.2896697 5.25277166 6.08808919 9.50460005 5 15 C4.67 15.66 4.34 16.32 4 17 C1.5625 16.625 1.5625 16.625 -1 16 C-2.29376578 13.41246844 -2.16832397 11.45041015 -2.1875 8.5625 C-2.20167969 7.59441406 -2.21585938 6.62632813 -2.23046875 5.62890625 C-2 3 -2 3 0 0 Z " fill="#FFFFFF" transform="translate(251,54)"/>
<path d="M0 0 C0.33 0 0.66 0 1 0 C0.96143754 4.9424218 0.10193442 7.31712289 -3.3515625 10.90234375 C-4.7611442 12.263 -6.18623889 13.60773594 -7.625 14.9375 C-9.03632551 16.27734954 -10.44519408 17.61979195 -11.8515625 18.96484375 C-12.54531982 19.62532715 -13.23907715 20.28581055 -13.95385742 20.96630859 C-16.58536593 23.58180386 -18.99342867 26.35184434 -21.37866211 29.19165039 C-23.99892062 32.11414019 -26.96275912 34.52061969 -30 37 C-30.66 36.67 -31.32 36.34 -32 36 C-31.10168457 35.12263184 -30.20336914 34.24526367 -29.27783203 33.34130859 C-25.93919143 30.07521392 -22.61392568 26.79577944 -19.29248047 23.51220703 C-17.85467495 22.0944835 -16.41329536 20.68037498 -14.96826172 19.27001953 C-12.88853907 17.23896211 -10.82213107 15.1951351 -8.7578125 13.1484375 C-8.11192169 12.52319183 -7.46603088 11.89794617 -6.80056763 11.25375366 C-3.26483413 7.71979915 -1.13702185 5.02577114 0 0 Z " fill="#B4D3DD" transform="translate(94,64)"/>
<path d="M0 0 C2.5 0.25 2.5 0.25 4.5 2.25 C4.625 5.375 4.625 5.375 4.5 8.25 C1.53 8.25 -1.44 8.25 -4.5 8.25 C-4.625 5.375 -4.625 5.375 -4.5 2.25 C-2.5 0.25 -2.5 0.25 0 0 Z " fill="#04F69F" transform="translate(323.5,98.75)"/>
<path d="M0 0 C1.125 3.75 1.125 3.75 0 6 C-0.06996014 7.70702735 -0.08440154 9.41668003 -0.0625 11.125 C-0.05347656 12.03507812 -0.04445313 12.94515625 -0.03515625 13.8828125 C-0.02355469 14.58148438 -0.01195312 15.28015625 0 16 C0.66 16 1.32 16 2 16 C1.67 17.093125 1.34 18.18625 1 19.3125 C-0.46681869 25.20072933 -1.25015585 31.93349452 1.078125 37.64453125 C2 40 2 40 1 43 C-1.42906124 37.99415077 -2.3769935 34.37002208 -2.36328125 28.7109375 C-2.36377975 28.04462311 -2.36427826 27.37830872 -2.36479187 26.69180298 C-2.3624688 25.29515573 -2.35284575 23.89850289 -2.33618164 22.50195312 C-2.31248124 20.37331527 -2.31564703 18.2459249 -2.32226562 16.1171875 C-2.27595246 4.78068939 -2.27595246 4.78068939 0 0 Z " fill="#AAB6DE" transform="translate(8,45)"/>
<path d="M0 0 C2.33294775 -0.04241723 4.66702567 -0.04092937 7 0 C8 1 8 1 8.1875 3.4375 C8 6 8 6 6 8 C2.875 8.125 2.875 8.125 0 8 C0 5.36 0 2.72 0 0 Z " fill="#04FCA3" transform="translate(282,99)"/>
<path d="M0 0 C0 0.33 0 0.66 0 1 C-1.670625 1.433125 -1.670625 1.433125 -3.375 1.875 C-7.00291092 2.69241329 -7.00291092 2.69241329 -9 5 C-9.58442963 7.87237733 -9.58442963 7.87237733 -9 11 C-7.37660195 12.70884005 -5.70680947 14.37446717 -4 16 C-2.6875 19.3125 -2.6875 19.3125 -2 22 C-2.99 22 -3.98 22 -5 22 C-5.97187708 20.29083686 -6.94264494 18.58102792 -7.90625 16.8671875 C-9.05613912 14.8430673 -9.05613912 14.8430673 -10.8125 12.4375 C-12.41557019 9.1469875 -12.1025102 7.45453195 -11 4 C-7.93346368 -0.48186077 -5.20796136 -0.40061241 0 0 Z " fill="#76EFBD" transform="translate(29,5)"/>
<path d="M0 0 C0.33 0.99 0.66 1.98 1 3 C0.0479279 4.00596297 -0.91187346 5.00461563 -1.875 6 C-2.40867187 6.556875 -2.94234375 7.11375 -3.4921875 7.6875 C-5 9 -5 9 -7 9 C-7.2475 9.5775 -7.495 10.155 -7.75 10.75 C-9.18299988 13.32939979 -10.78424676 15.06121592 -13 17 C-13.66 17 -14.32 17 -15 17 C-11.80573668 9.96948907 -6.00185406 4.6843739 0 0 Z " fill="#9EEACB" transform="translate(43,35)"/>
<path d="M0 0 C4.72254335 1.49132948 4.72254335 1.49132948 6.125 4.0625 C6.41375 4.701875 6.7025 5.34125 7 6 C7.99 6.33 8.98 6.66 10 7 C10 7.66 10 8.32 10 9 C10.639375 9.185625 11.27875 9.37125 11.9375 9.5625 C14 11 14 11 14.75 14.625 C14.87375 16.295625 14.87375 16.295625 15 18 C14.73268066 17.40598389 14.46536133 16.81196777 14.18994141 16.19995117 C12.98394183 13.97031182 11.77334984 12.55606023 9.9609375 10.80078125 C9.38085938 10.23166016 8.80078125 9.66253906 8.203125 9.07617188 C7.59984375 8.49416016 6.9965625 7.91214844 6.375 7.3125 C4.22845358 5.22708939 2.10610824 3.12687269 0 1 C0 0.67 0 0.34 0 0 Z " fill="#92EAC7" transform="translate(79,47)"/>
<path d="M0 0 C0.99 0.33 1.98 0.66 3 1 C1.7934375 1.8971875 1.7934375 1.8971875 0.5625 2.8125 C-4.33987415 6.85666476 -8.0850542 12.03236877 -12 17 C-12.33 16.34 -12.66 15.68 -13 15 C-8.96305986 9.62537555 -4.87336751 4.63564226 0 0 Z " fill="#ADEDD5" transform="translate(22,28)"/>
<path d="M0 0 C4.04161955 1.34484714 6.38678154 3.0505162 9.3125 6.125 C10.00988281 6.84945312 10.70726563 7.57390625 11.42578125 8.3203125 C11.94527344 8.87460937 12.46476562 9.42890625 13 10 C12.01 10.33 11.02 10.66 10 11 C8.33035479 9.35718838 6.6643536 7.71067239 5 6.0625 C4.071875 5.14597656 3.14375 4.22945312 2.1875 3.28515625 C0 1 0 1 0 0 Z " fill="#71EEBA" transform="translate(68,36)"/>
<path d="M0 0 C0 0.66 0 1.32 0 2 C-0.66 2 -1.32 2 -2 2 C-2.268125 2.598125 -2.53625 3.19625 -2.8125 3.8125 C-4 6 -4 6 -5.5 7.4375 C-7.39903312 9.4156595 -8.09899031 11.43558782 -9 14 C-10.04449911 10.86650268 -9.93423645 10.01031744 -9 7 C-8.34 7 -7.68 7 -7 7 C-6.731875 6.401875 -6.46375 5.80375 -6.1875 5.1875 C-3.37142857 0 -3.37142857 0 0 0 Z " fill="#BED9DC" transform="translate(28,52)"/>
<path d="M0 0 C0.33 0.99 0.66 1.98 1 3 C0.0479279 4.00596297 -0.91187346 5.00461563 -1.875 6 C-2.40867187 6.556875 -2.94234375 7.11375 -3.4921875 7.6875 C-5 9 -5 9 -7 9 C-5.44499019 5.18315774 -2.96404505 2.80804268 0 0 Z " fill="#B8E8D8" transform="translate(35,43)"/>
<path d="M0 0 C0.33 0.66 0.66 1.32 1 2 C-1.64 4.31 -4.28 6.62 -7 9 C-7.33 8.01 -7.66 7.02 -8 6 C-3.375 1.125 -3.375 1.125 0 0 Z " fill="#79EABC" transform="translate(52,28)"/>
<path d="M0 0 C4.7037037 1.48538012 4.7037037 1.48538012 6.1875 4.0625 C6.455625 4.701875 6.72375 5.34125 7 6 C7.66 6.33 8.32 6.66 9 7 C6.62051228 6.82374165 5.29774151 6.30280227 3.62109375 4.59765625 C2.37884514 3.09350908 1.18623944 1.54870149 0 0 Z " fill="#83EDC1" transform="translate(79,47)"/>
<path d="M0 0 C0 0.33 0 0.66 0 1 C-1.0725 1.268125 -2.145 1.53625 -3.25 1.8125 C-6.56508928 2.86227827 -8.43877646 3.74612328 -11 6 C-8.67640938 -0.47285958 -6.6985661 -0.12404752 0 0 Z " fill="#49E9A9" transform="translate(29,5)"/>
</svg>
