<?xml version="1.0" standalone="no"?>
<!DOCTYPE svg PUBLIC "-//W3C//DTD SVG 20010904//EN"
 "http://www.w3.org/TR/2001/REC-SVG-20010904/DTD/svg10.dtd">
<svg version="1.0" xmlns="http://www.w3.org/2000/svg"
 width="375.000000pt" height="138.000000pt" viewBox="0 0 375.000000 138.000000"
 preserveAspectRatio="xMidYMid meet">

<g transform="translate(0.000000,138.000000) scale(0.100000,-0.100000)"
fill="#000000" stroke="none">
<path d="M2770 330 l0 -110 25 0 c18 0 25 5 25 19 0 14 10 20 41 24 51 7 78
32 86 80 5 31 1 40 -25 67 -27 27 -37 30 -91 30 l-61 0 0 -110z m128 32 c5
-32 -15 -52 -49 -52 -27 0 -29 3 -29 41 l0 40 38 -3 c30 -2 38 -7 40 -26z"/>
<path d="M2970 330 l0 -110 80 0 c73 0 80 2 80 20 0 18 -7 20 -55 20 l-55 0 0
90 c0 89 0 90 -25 90 l-25 0 0 -110z"/>
<path d="M3176 415 c-24 -22 -26 -30 -26 -110 0 -78 2 -85 20 -85 13 0 20 7
20 20 0 17 7 20 45 20 38 0 45 -3 45 -20 0 -13 7 -20 20 -20 18 0 20 7 20 79
0 95 -4 107 -41 126 -41 21 -72 18 -103 -10z m94 -44 c5 -11 10 -29 10 -40 0
-18 -6 -21 -45 -21 -43 0 -45 1 -45 28 0 15 5 33 12 40 18 18 56 14 68 -7z"/>
<path d="M3350 386 c0 -48 3 -57 30 -79 21 -18 30 -35 30 -56 0 -26 4 -31 25
-31 21 0 25 5 25 29 0 19 10 40 30 59 25 26 30 38 30 81 0 44 -3 51 -20 51
-17 0 -20 -7 -20 -39 0 -40 -20 -71 -45 -71 -25 0 -45 31 -45 71 0 32 -3 39
-20 39 -18 0 -20 -7 -20 -54z"/>
<path d="M231 292 c-21 -29 -36 -62 -39 -88 -4 -37 -1 -44 23 -60 25 -16 36
-17 119 -6 51 6 123 21 162 33 61 19 66 23 45 30 -71 27 -203 90 -246 117
l-30 20 -34 -46z"/>
</g>
</svg>
